<svg width="520" height="262" viewBox="0 0 520 262" fill="none" xmlns="http://www.w3.org/2000/svg">
<g filter="url(#filter0_d_64_22)">
<g filter="url(#filter1_d_64_22)">
<path d="M23.4813 129.593L23.075 148.398L29.9 148.933C29.9 150.36 29.4395 151.889 28.5188 153.52H9.83125L9.5875 150.845C11.9708 150.029 14.2729 149.443 16.4938 149.086C16.1688 129.211 15.8979 114.432 15.6813 104.749C14.4896 104.647 12.1063 104.035 8.53125 102.914L8.9375 100.009H48.1C48.2083 100.672 48.2625 101.691 48.2625 103.067C48.2625 105.819 47.8833 108.877 47.125 112.24C45.9333 112.444 44.3625 112.546 42.4125 112.546L40.4625 105.284H23.8063C23.698 109.565 23.5895 115.986 23.4813 124.548H36.3187L36.9688 119.044C38.4855 119.044 40.1105 119.477 41.8438 120.343V134.868L39 135.097C38.1875 132.905 37.6458 131.071 37.375 129.593H23.4813ZM71.0665 104.901L70.254 148.322L77.079 148.933C77.079 150.36 76.6185 151.889 75.6978 153.52H57.0103L56.7665 150.845C59.2581 150.029 61.7228 149.417 64.1603 149.01C64.0518 145.697 63.8623 138.868 63.5915 128.523C63.3748 118.177 63.1853 110.176 63.0228 104.519C60.856 104.112 58.4185 103.5 55.7103 102.685L55.954 100.009H76.2665C77.1873 101.64 77.6478 103.169 77.6478 104.596C74.8853 104.8 72.6915 104.901 71.0665 104.901ZM99.8195 109.488L99.007 148.322L105.832 148.933C105.832 150.36 105.371 151.889 104.451 153.52H85.7632L85.5195 150.845C88.4445 149.927 90.936 149.316 92.9945 149.01C92.886 145.697 92.6965 138.868 92.4257 128.523C92.209 118.177 92.0195 110.176 91.857 104.519C89.7985 104.213 87.361 103.602 84.5445 102.685L84.7882 100.009H100.876L130.532 144.576L129.151 104.519C127.146 104.162 124.736 103.551 121.919 102.685L122.163 100.009H142.476C143.396 101.64 143.857 103.169 143.857 104.596C141.149 104.8 138.982 104.901 137.357 104.901L136.544 153.52H128.663L99.8195 109.488ZM192.519 154.514C176.594 154.514 168.632 145.111 168.632 126.306C168.632 117.387 170.555 110.609 174.401 105.972C178.301 101.334 184.503 99.0152 193.007 99.0152C199.832 99.0152 205.898 100.799 211.207 104.366C211.207 107.22 210.827 110.839 210.07 115.221C209.31 115.374 207.74 115.451 205.357 115.451L202.919 105.972C199.073 105.309 195.986 104.978 193.657 104.978C189.378 104.978 185.613 105.538 182.363 106.66L180.819 107.195C180.494 107.704 180.088 108.469 179.601 109.488C179.113 110.456 178.463 112.52 177.651 115.68C176.892 118.84 176.513 122.076 176.513 125.389C176.513 132.574 177.759 138.282 180.251 142.512C182.796 146.742 186.832 148.857 192.357 148.857C196.311 148.857 199.29 148.475 201.294 147.71C201.836 147.456 202.621 147.073 203.651 146.564L205.357 137.39L210.07 137.62C210.882 142.869 211.289 147.124 211.289 150.386C210.151 151.201 207.685 152.093 203.895 153.061C200.157 154.03 196.365 154.514 192.519 154.514ZM229.728 95.1261C230.825 94.7821 233.811 94.4094 238.686 94.0081C243.561 93.5494 247.979 93.3201 251.94 93.3201C255.962 93.3201 259.07 93.4921 261.263 93.8361C261.324 94.0654 261.355 94.3521 261.355 94.6961C261.355 94.9827 261.172 95.6994 260.806 96.8461C260.502 97.9927 260.258 98.7381 260.075 99.0821C259.588 99.5407 258.217 99.8847 255.962 100.114L273.42 147.672L282.104 148.36C282.104 149.965 281.586 151.685 280.55 153.52H259.527L259.253 150.51C260.654 149.822 262.695 149.22 265.377 148.704L260.715 136.406H235.213L230.917 147.672L238.32 148.36C238.32 149.965 237.803 151.685 236.767 153.52H215.743L215.469 150.51C217.845 149.707 220.374 149.077 223.056 148.618L240.788 99.8561C235.365 99.2827 231.556 98.5947 229.363 97.7921L229.728 95.1261ZM253.494 117.228L248.649 100.372C248.284 100.315 247.766 100.286 247.095 100.286L242.16 117.83L236.858 130.902H259.07L253.494 117.228Z" fill="#44E32A"/>
<path d="M319.308 103.602V101.538H334.827V103.602L330.358 103.984C329.491 104.086 328.977 104.29 328.815 104.596C328.652 104.901 328.571 105.946 328.571 107.73V135.861C328.571 141.671 327.135 146.207 324.265 149.469C321.447 152.679 317.115 154.285 311.265 154.285C304.872 154.285 299.971 152.526 296.558 149.01C293.201 145.493 291.521 140.652 291.521 134.485V107.73C291.521 105.946 291.44 104.901 291.277 104.596C291.115 104.29 290.601 104.086 289.733 103.984L285.265 103.602V101.538H304.846V103.602L300.377 103.984C299.51 104.086 298.996 104.29 298.833 104.596C298.671 104.901 298.59 105.946 298.59 107.73V135.632C298.59 141.085 299.672 145.137 301.84 147.787C304.06 150.437 307.419 151.762 311.915 151.762C316.465 151.762 319.877 150.411 322.152 147.71C324.427 145.009 325.565 141.085 325.565 135.938V107.73C325.565 105.946 325.483 104.901 325.321 104.596C325.158 104.29 324.644 104.086 323.777 103.984L319.308 103.602ZM341.469 103.602V101.538H364.544C371.154 101.538 376.218 103.551 379.738 107.577C383.26 111.603 385.019 117.285 385.019 124.624V130.357C385.019 137.747 383.26 143.455 379.738 147.481C376.218 151.507 371.154 153.52 364.544 153.52H341.469V151.533L345.938 151.074C346.805 150.972 347.319 150.768 347.482 150.462C347.644 150.157 347.726 149.112 347.726 147.328V107.73C347.726 105.946 347.644 104.901 347.482 104.596C347.319 104.29 346.805 104.086 345.938 103.984L341.469 103.602ZM364.382 103.984H354.794V151.074H364.382C367.307 151.074 369.718 150.564 371.613 149.545C373.51 148.526 374.918 146.793 375.838 144.347C376.813 141.849 377.301 138.461 377.301 134.18V120.802C377.301 116.572 376.813 113.234 375.838 110.788C374.918 108.341 373.51 106.609 371.613 105.589C369.718 104.519 367.307 103.984 364.382 103.984ZM394.95 103.602V101.538H414.531V103.602L410.063 103.984C409.195 104.086 408.681 104.29 408.519 104.596C408.356 104.901 408.275 105.946 408.275 107.73V147.328C408.275 149.112 408.356 150.157 408.519 150.462C408.681 150.768 409.195 150.972 410.063 151.074L414.531 151.533V153.52H394.95V151.533L399.419 151.074C400.284 150.972 400.8 150.768 400.963 150.462C401.125 150.157 401.206 149.112 401.206 147.328V107.73C401.206 105.946 401.125 104.901 400.963 104.596C400.8 104.29 400.284 104.086 399.419 103.984L394.95 103.602ZM419.479 101.538H462.704V113.998H460.592L458.236 105.972C458.073 105.36 457.884 104.927 457.667 104.672C457.504 104.366 457.153 104.188 456.611 104.137C456.068 104.035 455.148 103.984 453.848 103.984H444.667V147.328C444.667 149.112 444.748 150.157 444.911 150.462C445.073 150.768 445.587 150.972 446.454 151.074L450.923 151.533V153.52H431.342V151.533L435.811 151.074C436.678 150.972 437.192 150.768 437.354 150.462C437.517 150.157 437.598 149.112 437.598 147.328V103.984H428.336C427.091 103.984 426.168 104.035 425.573 104.137C425.031 104.188 424.653 104.366 424.436 104.672C424.273 104.927 424.111 105.36 423.948 105.972L421.592 113.998H419.479V101.538ZM475.038 151.533V153.52H459.601V151.533L463.988 151.074C464.583 151.023 465.016 150.946 465.288 150.845C465.558 150.692 465.802 150.386 466.019 149.927C466.29 149.417 466.615 148.551 466.994 147.328L482.676 101.538H487.794L503.638 147.328C504.016 148.551 504.315 149.417 504.532 149.927C504.802 150.386 505.072 150.692 505.344 150.845C505.615 150.946 506.021 151.023 506.563 151.074L511.032 151.533V153.52H491.288V151.533L495.757 151.074C496.622 150.972 497.083 150.768 497.138 150.462C497.246 150.105 497.002 149.061 496.407 147.328L493.076 137.543H473.251L469.919 147.328C469.322 149.061 469.052 150.105 469.107 150.462C469.215 150.768 469.702 150.972 470.569 151.074L475.038 151.533ZM474.063 135.097H492.263L483.163 108.494L474.063 135.097Z" fill="#1E1E1E"/>
</g>
<path d="M335.516 25.0864C335.516 25.0864 339.775 28.097 342.396 30.1539C344.346 31.6851 345.394 32.5932 347.289 34.1827C349.603 36.1215 353.153 39.2084 353.153 39.2084C353.153 39.2084 356.159 42.2027 358.004 44.1918C362.442 48.982 364.748 52.1233 368.583 57.0646C372.418 62.006 363.612 51.2648 359.854 48.0945C357.313 45.9517 355.767 44.8714 352.974 43.0268C350.358 41.2982 346.052 38.9139 346.052 38.9139L340.098 35.7976C340.098 35.7976 336.148 33.291 330.129 31.5584C326.261 30.445 321.041 28.8868 317.074 28.1476C313.55 27.4913 312.55 27.3771 309.002 26.8565C305.453 26.3359 299.431 25.6787 295.856 25.3551C293.398 25.1326 286.416 25.4625 283.636 25.8048C281.631 26.0517 280.516 26.2585 278.517 26.5492C274.519 27.1305 273.223 27.1663 269.297 28.0798C265.149 29.0445 261.911 29.9162 257.957 31.4357C255.493 32.3821 254.136 32.9699 251.735 34.0472C248.848 35.3416 249.316 35.2281 246.527 36.7006C244.032 38.0177 241.489 39.5646 239.2 41.1793C236.958 42.7628 234.959 43.9183 232.889 45.7002C230.407 47.8384 228.948 48.9692 226.533 51.1756C223.509 53.9396 222.889 54.6039 220.133 57.6055C216.968 61.0524 215.211 64.0136 212.538 67.812C209.601 71.9868 208.331 73.5793 205.959 78.0605C203.338 83.008 202.602 84.6167 201.498 86.4839C200.459 88.24 199.155 93.0822 199.155 93.0822C199.155 93.0822 196.156 92.0013 193.112 91.8751C190.31 91.7589 189.732 92.0718 186.98 92.5775C184.518 93.0296 184.102 93.3027 181.817 94.2763C177.976 95.9128 175.301 97.7264 172.372 100.58C170.002 102.889 168.755 104.599 168.09 105.185C167.426 105.771 163.674 112.654 163.674 112.654L161.287 120.207C161.108 124.025 160.852 124.486 160.929 127.844C160.998 130.852 161.631 134.568 162.512 137.474C163.392 140.38 163.579 140.846 164.317 142.332C165.297 144.302 165.908 145.388 167.138 147.231C168.488 149.255 169.965 150.935 171.743 152.641C173.746 154.562 175.241 155.265 177.653 156.712C179.827 158.016 181.261 158.51 183.621 159.323L183.85 159.401C186.484 160.309 190.908 160.65 190.908 160.65C190.908 160.65 192.168 166.258 193.505 170.323C194.921 174.63 195.348 175.847 197.116 180.038C198.558 183.454 199.081 185.484 200.772 188.798C203.726 194.586 204.961 196.623 209.322 201.586C214.888 207.919 220.917 214.501 227.841 218.614C232.044 221.11 232.343 221.603 236.748 223.766C241.648 226.17 246.523 228.311 251.7 230.125C260.087 233.062 264.02 233.352 272.829 234.826C277.532 235.613 280.902 236.118 283.946 236.244C287.154 236.378 291.801 236.143 296.166 235.795C302.599 235.279 312.534 233.603 312.534 233.603C312.534 233.603 318.287 232.387 321.801 231.118C325.611 229.74 331.155 226.723 331.155 226.723C331.155 226.723 338.709 223.166 341.571 221.416C344.431 219.667 344.711 219.074 347.882 216.896C353.133 213.288 354.941 211.472 357.5 209.267C365.01 202.798 374.766 186.333 372.515 190.179C372.515 190.179 368.901 196.527 368.099 197.647C367.297 198.767 368.672 196.736 365.936 200.428C364.8 201.959 360.77 206.387 359.489 207.812C354.406 213.469 354.463 213.695 348.806 218.847C348.806 218.847 342.184 225.039 338.213 227.973C333.97 231.107 331.26 233.465 326.649 236.101C320.72 239.491 317.354 241.381 311.027 244.062C304.379 246.881 301.622 247.539 294.525 249.117C290.966 249.908 285.836 250.988 282.216 251.475C276.274 252.276 273.922 252.672 267.922 252.796C261.972 252.918 259.638 252.744 253.715 252.207C249.356 251.812 244.599 251.495 240.571 250.705C234.542 249.524 226.545 246.298 226.545 246.298C226.545 246.298 217.196 242.866 211.593 239.94C205.051 236.523 197.79 230.759 197.79 230.759L185.047 220.666C185.047 220.666 171.272 204.697 166.797 197.911C164.071 193.775 163.388 191.566 161.201 187.157C159.021 182.761 158.241 181.991 156.575 177.4C155.675 174.919 153.907 169.805 153.008 166.731C151.708 162.28 151.31 160.65 150.456 156.104C149.753 152.356 149.295 150.259 148.874 146.474C148.46 142.744 148.481 140.632 148.307 136.885C148.063 131.653 148.888 124.475 148.933 123.52C149.301 115.656 150.064 111.237 151.901 103.557C153.886 95.2553 155.55 89.7127 159.017 81.8533C161.333 76.6036 162.847 73.7353 165.731 68.741C169.207 62.7213 175.578 53.8454 175.578 53.8454C175.578 53.8454 179.905 48.985 183.083 45.5481C188.973 39.1774 193.068 35.2659 200.077 29.9926C205.593 25.8432 212.656 21.9057 212.656 21.9057C212.656 21.9057 217.88 19.3777 219.936 18.3816C225.457 15.7074 234.455 12.2881 234.455 12.2881C234.455 12.2881 244.345 9.17069 250.912 8.18801C253.295 7.83142 254.646 7.72571 257.045 7.48577C264.973 6.69291 269.478 5.83817 277.426 6.41783C281.401 6.70765 287.089 7.02783 292.602 8.00344C298.114 8.97902 293.132 8.23485 298.645 9.21046C304.157 10.186 309.599 12.1503 315.671 14.6987C319.237 16.196 324.206 18.1962 327.622 19.9767C331.195 21.8379 335.516 25.0864 335.516 25.0864Z" fill="#45A536"/>
<path d="M295.856 25.3551C293.398 25.1326 286.416 25.4625 283.636 25.8048C281.631 26.0517 280.516 26.2585 278.517 26.5492C274.519 27.1305 273.223 27.1663 269.297 28.0798C265.149 29.0445 261.911 29.9162 257.957 31.4357C255.493 32.3821 254.136 32.9699 251.735 34.0472C248.848 35.3416 249.316 35.2281 246.527 36.7006C244.032 38.0177 241.489 39.5646 239.2 41.1793C236.958 42.7628 234.959 43.9183 232.889 45.7002C230.407 47.8384 228.948 48.9692 226.533 51.1756C223.509 53.9396 222.889 54.6039 220.133 57.6055C216.968 61.0524 215.211 64.0136 212.538 67.812C209.601 71.9868 208.331 73.5793 205.959 78.0605C203.338 83.008 202.602 84.6167 201.498 86.4839C200.459 88.24 199.155 93.0822 199.155 93.0822C199.155 93.0822 196.156 92.0013 193.112 91.8751C190.31 91.7589 189.732 92.0718 186.98 92.5775C184.518 93.0296 184.102 93.3027 181.817 94.2763C177.976 95.9128 175.301 97.7264 172.372 100.58C170.002 102.889 168.755 104.599 168.09 105.185C167.426 105.771 163.674 112.654 163.674 112.654L161.287 120.207C161.108 124.025 160.852 124.486 160.929 127.844C160.998 130.852 161.631 134.568 162.512 137.474C163.392 140.38 163.579 140.846 164.317 142.332C165.297 144.302 165.908 145.388 167.138 147.231C168.488 149.255 169.965 150.935 171.743 152.641C173.746 154.562 175.241 155.265 177.653 156.712C179.896 158.057 181.352 158.541 183.85 159.401C186.484 160.309 190.908 160.651 190.908 160.651C190.908 160.651 192.168 166.258 193.505 170.323C194.921 174.63 195.348 175.847 197.116 180.038C198.558 183.454 199.081 185.484 200.772 188.798C203.726 194.586 204.961 196.623 209.322 201.586C214.888 207.919 220.917 214.501 227.841 218.614C232.044 221.11 232.343 221.603 236.748 223.766C241.648 226.17 246.523 228.311 251.7 230.125C260.087 233.062 264.02 233.352 272.829 234.826C277.532 235.613 280.902 236.118 283.946 236.244C287.154 236.378 291.801 236.143 296.166 235.795C302.599 235.279 312.534 233.603 312.534 233.603C312.534 233.603 318.287 232.387 321.801 231.118C325.611 229.74 331.155 226.723 331.155 226.723C331.155 226.723 338.709 223.166 341.571 221.416C344.431 219.667 344.711 219.074 347.882 216.896C353.133 213.288 354.941 211.472 357.5 209.267C365.01 202.798 374.766 186.333 372.515 190.179C372.515 190.179 368.901 196.527 368.099 197.647C367.297 198.767 368.672 196.736 365.936 200.428C364.8 201.959 360.77 206.387 359.489 207.812C354.406 213.469 354.463 213.695 348.806 218.847C348.806 218.847 342.184 225.039 338.213 227.973C333.97 231.107 331.26 233.465 326.649 236.101C320.72 239.491 317.354 241.381 311.027 244.062C304.379 246.881 301.622 247.539 294.525 249.117C290.966 249.908 285.836 250.988 282.216 251.475C276.274 252.276 273.922 252.672 267.922 252.796C261.972 252.918 259.638 252.744 253.715 252.207C249.356 251.812 244.599 251.495 240.571 250.705C234.542 249.524 226.545 246.298 226.545 246.298C226.545 246.298 217.195 242.866 211.593 239.94C205.051 236.523 197.79 230.759 197.79 230.759L185.047 220.666C185.047 220.666 171.272 204.697 166.797 197.911C164.071 193.775 163.388 191.566 161.201 187.157C159.021 182.761 158.241 181.991 156.575 177.4C155.675 174.919 153.907 169.805 153.008 166.731C151.708 162.28 151.31 160.65 150.456 156.104C149.753 152.356 149.295 150.259 148.874 146.474C148.46 142.744 148.481 140.632 148.307 136.885C148.063 131.653 148.888 124.475 148.933 123.52C149.301 115.656 150.064 111.237 151.901 103.557C153.886 95.2553 155.55 89.7127 159.017 81.8533C161.333 76.6036 162.847 73.7353 165.731 68.741C169.207 62.7213 175.578 53.8454 175.578 53.8454C175.578 53.8454 179.905 48.985 183.083 45.5481C188.973 39.1774 193.068 35.2659 200.077 29.9926C205.593 25.8432 212.656 21.9057 212.656 21.9057C212.656 21.9057 217.88 19.3777 219.936 18.3816C225.457 15.7074 234.455 12.2881 234.455 12.2881C234.455 12.2881 244.345 9.17069 250.912 8.18801C253.295 7.83142 254.646 7.72571 257.045 7.48577C264.973 6.69291 269.478 5.83817 277.426 6.41783C281.401 6.70765 287.089 7.02783 292.602 8.00344C298.114 8.97902 293.132 8.23485 298.645 9.21046C304.157 10.186 309.599 12.1503 315.671 14.6987C319.237 16.196 324.206 18.1962 327.622 19.9767C331.195 21.8379 335.516 25.0864 335.516 25.0864C335.516 25.0864 339.775 28.097 342.396 30.1539C344.346 31.6851 345.394 32.5932 347.289 34.1827C349.603 36.1215 353.153 39.2084 353.153 39.2084C353.153 39.2084 356.159 42.2027 358.004 44.1918C362.442 48.982 364.748 52.1233 368.583 57.0646C372.418 62.006 363.612 51.2648 359.854 48.0945C357.313 45.9517 355.767 44.8714 352.974 43.0268C350.358 41.2982 346.052 38.9139 346.052 38.9139L340.098 35.7976C340.098 35.7976 336.148 33.291 330.129 31.5584C326.261 30.445 321.041 28.8868 317.074 28.1476C313.55 27.4913 312.55 27.3771 309.002 26.8565C305.453 26.3359 299.431 25.6787 295.856 25.3551ZM295.856 25.3551C292.697 25.069 297.009 25.4596 295.856 25.3551Z" stroke="#45A536"/>
</g>
<defs>
<filter id="filter0_d_64_22" x="-4" y="0" width="528" height="266" filterUnits="userSpaceOnUse" color-interpolation-filters="sRGB">
<feFlood flood-opacity="0" result="BackgroundImageFix"/>
<feColorMatrix in="SourceAlpha" type="matrix" values="0 0 0 0 0 0 0 0 0 0 0 0 0 0 0 0 0 0 127 0" result="hardAlpha"/>
<feOffset dy="4"/>
<feGaussianBlur stdDeviation="2"/>
<feComposite in2="hardAlpha" operator="out"/>
<feColorMatrix type="matrix" values="0 0 0 0 0 0 0 0 0 0 0 0 0 0 0 0 0 0 0.25 0"/>
<feBlend mode="normal" in2="BackgroundImageFix" result="effect1_dropShadow_64_22"/>
<feBlend mode="normal" in="SourceGraphic" in2="effect1_dropShadow_64_22" result="shape"/>
</filter>
<filter id="filter1_d_64_22" x="4.53125" y="93.3201" width="510.501" height="69.1938" filterUnits="userSpaceOnUse" color-interpolation-filters="sRGB">
<feFlood flood-opacity="0" result="BackgroundImageFix"/>
<feColorMatrix in="SourceAlpha" type="matrix" values="0 0 0 0 0 0 0 0 0 0 0 0 0 0 0 0 0 0 127 0" result="hardAlpha"/>
<feOffset dy="4"/>
<feGaussianBlur stdDeviation="2"/>
<feComposite in2="hardAlpha" operator="out"/>
<feColorMatrix type="matrix" values="0 0 0 0 0 0 0 0 0 0 0 0 0 0 0 0 0 0 0.25 0"/>
<feBlend mode="normal" in2="BackgroundImageFix" result="effect1_dropShadow_64_22"/>
<feBlend mode="normal" in="SourceGraphic" in2="effect1_dropShadow_64_22" result="shape"/>
</filter>
</defs>
</svg>
