<!-- svg-logo.component.html -->
<svg width="100" height="100" viewBox="0 0 256 135" fill="none" xmlns="http://www.w3.org/2000/svg">
    <g filter="url(#filter0_d_6_46)"> 
        <path
            d="M11.56 67.8103L11.36 77.6503L14.72 77.9303C14.72 78.677 14.4933 79.477 14.04 80.3303H4.84L4.72 78.9303C5.89333 78.5036 7.02667 78.197 8.12 78.0103C7.96 67.6103 7.82667 59.877 7.72 54.8103C7.13333 54.757 5.96 54.437 4.2 53.8503L4.4 52.3303H23.68C23.7333 52.677 23.76 53.2103 23.76 53.9303C23.76 55.3703 23.5733 56.9703 23.2 58.7303C22.6133 58.837 21.84 58.8903 20.88 58.8903L19.92 55.0903H11.72C11.6667 57.3303 11.6133 60.6903 11.56 65.1703H17.88L18.2 62.2903C18.9467 62.2903 19.7467 62.517 20.6 62.9703V70.5703L19.2 70.6903C18.8 69.5436 18.5333 68.5836 18.4 67.8103H11.56ZM34.9866 54.8903L34.5866 77.6103L37.9466 77.9303C37.9466 78.677 37.7199 79.477 37.2666 80.3303H28.0666L27.9466 78.9303C29.1732 78.5036 30.3866 78.1836 31.5866 77.9703C31.5332 76.237 31.4399 72.6636 31.3066 67.2503C31.1999 61.837 31.1066 57.6503 31.0266 54.6903C29.9599 54.477 28.7599 54.157 27.4266 53.7303L27.5466 52.3303H37.5466C37.9999 53.1836 38.2266 53.9836 38.2266 54.7303C36.8666 54.837 35.7866 54.8903 34.9866 54.8903ZM49.1419 57.2903L48.7419 77.6103L52.1019 77.9303C52.1019 78.677 51.8752 79.477 51.4219 80.3303H42.2219L42.1019 78.9303C43.5419 78.4503 44.7685 78.1303 45.7819 77.9703C45.7285 76.237 45.6352 72.6636 45.5019 67.2503C45.3952 61.837 45.3019 57.6503 45.2219 54.6903C44.2085 54.5303 43.0085 54.2103 41.6219 53.7303L41.7419 52.3303H49.6619L64.2619 75.6503L63.5819 54.6903C62.5952 54.5036 61.4085 54.1836 60.0219 53.7303L60.1419 52.3303H70.1419C70.5952 53.1836 70.8219 53.9836 70.8219 54.7303C69.4885 54.837 68.4219 54.8903 67.6219 54.8903L67.2219 80.3303H63.3419L49.1419 57.2903ZM94.7788 80.8503C86.9388 80.8503 83.0188 75.9303 83.0188 66.0903C83.0188 61.4236 83.9654 57.877 85.8588 55.4503C87.7788 53.0236 90.8321 51.8103 95.0188 51.8103C98.3788 51.8103 101.365 52.7436 103.979 54.6103C103.979 56.1036 103.792 57.997 103.419 60.2903C103.045 60.3703 102.272 60.4103 101.099 60.4103L99.8988 55.4503C98.0054 55.1036 96.4854 54.9303 95.3388 54.9303C93.2321 54.9303 91.3788 55.2236 89.7788 55.8103L89.0188 56.0903C88.8588 56.357 88.6588 56.757 88.4188 57.2903C88.1788 57.797 87.8588 58.877 87.4588 60.5303C87.0854 62.1836 86.8988 63.877 86.8988 65.6103C86.8988 69.3703 87.5121 72.357 88.7388 74.5703C89.9921 76.7836 91.9788 77.8903 94.6988 77.8903C96.6454 77.8903 98.1121 77.6903 99.0988 77.2903C99.3654 77.157 99.7521 76.957 100.259 76.6903L101.099 71.8903L103.419 72.0103C103.819 74.757 104.019 76.9836 104.019 78.6903C103.459 79.117 102.245 79.5836 100.379 80.0903C98.5388 80.597 96.6721 80.8503 94.7788 80.8503ZM113.097 49.7753C113.637 49.5953 115.107 49.4003 117.507 49.1903C119.907 48.9503 122.082 48.8303 124.032 48.8303C126.012 48.8303 127.542 48.9203 128.622 49.1003C128.652 49.2203 128.667 49.3703 128.667 49.5503C128.667 49.7003 128.577 50.0753 128.397 50.6753C128.247 51.2753 128.127 51.6653 128.037 51.8453C127.797 52.0853 127.122 52.2653 126.012 52.3853L134.607 77.2703L138.882 77.6303C138.882 78.4703 138.627 79.3703 138.117 80.3303H127.767L127.632 78.7553C128.322 78.3953 129.327 78.0803 130.647 77.8103L128.352 71.3753H115.797L113.682 77.2703L117.327 77.6303C117.327 78.4703 117.072 79.3703 116.562 80.3303H106.212L106.077 78.7553C107.247 78.3353 108.492 78.0053 109.812 77.7653L118.542 52.2503C115.872 51.9503 113.997 51.5903 112.917 51.1703L113.097 49.7753ZM124.797 61.3403L122.412 52.5203C122.232 52.4903 121.977 52.4753 121.647 52.4753L119.217 61.6553L116.607 68.4953H127.542L124.797 61.3403Z"
            fill="#44E32A" />
        <path
            d="M157.198 54.2103V53.1303H164.838V54.2103L162.638 54.4103C162.211 54.4636 161.958 54.5703 161.878 54.7303C161.798 54.8903 161.758 55.437 161.758 56.3703V71.0903C161.758 74.1303 161.051 76.5036 159.638 78.2103C158.251 79.8903 156.118 80.7303 153.238 80.7303C150.091 80.7303 147.678 79.8103 145.998 77.9703C144.345 76.1303 143.518 73.597 143.518 70.3703V56.3703C143.518 55.437 143.478 54.8903 143.398 54.7303C143.318 54.5703 143.065 54.4636 142.638 54.4103L140.438 54.2103V53.1303H150.078V54.2103L147.878 54.4103C147.451 54.4636 147.198 54.5703 147.118 54.7303C147.038 54.8903 146.998 55.437 146.998 56.3703V70.9703C146.998 73.8236 147.531 75.9436 148.598 77.3303C149.691 78.717 151.345 79.4103 153.558 79.4103C155.798 79.4103 157.478 78.7036 158.598 77.2903C159.718 75.877 160.278 73.8236 160.278 71.1303V56.3703C160.278 55.437 160.238 54.8903 160.158 54.7303C160.078 54.5703 159.825 54.4636 159.398 54.4103L157.198 54.2103ZM168.108 54.2103V53.1303H179.468C182.722 53.1303 185.215 54.1836 186.948 56.2903C188.682 58.397 189.548 61.3703 189.548 65.2103V68.2103C189.548 72.077 188.682 75.0636 186.948 77.1703C185.215 79.277 182.722 80.3303 179.468 80.3303H168.108V79.2903L170.308 79.0503C170.735 78.997 170.988 78.8903 171.068 78.7303C171.148 78.5703 171.188 78.0236 171.188 77.0903V56.3703C171.188 55.437 171.148 54.8903 171.068 54.7303C170.988 54.5703 170.735 54.4636 170.308 54.4103L168.108 54.2103ZM179.388 54.4103H174.668V79.0503H179.388C180.828 79.0503 182.015 78.7836 182.948 78.2503C183.882 77.717 184.575 76.8103 185.028 75.5303C185.508 74.2236 185.748 72.4503 185.748 70.2103V63.2103C185.748 60.997 185.508 59.2503 185.028 57.9703C184.575 56.6903 183.882 55.7836 182.948 55.2503C182.015 54.6903 180.828 54.4103 179.388 54.4103ZM194.437 54.2103V53.1303H204.077V54.2103L201.877 54.4103C201.45 54.4636 201.197 54.5703 201.117 54.7303C201.037 54.8903 200.997 55.437 200.997 56.3703V77.0903C200.997 78.0236 201.037 78.5703 201.117 78.7303C201.197 78.8903 201.45 78.997 201.877 79.0503L204.077 79.2903V80.3303H194.437V79.2903L196.637 79.0503C197.063 78.997 197.317 78.8903 197.397 78.7303C197.477 78.5703 197.517 78.0236 197.517 77.0903V56.3703C197.517 55.437 197.477 54.8903 197.397 54.7303C197.317 54.5703 197.063 54.4636 196.637 54.4103L194.437 54.2103ZM206.513 53.1303H227.793V59.6503H226.753L225.593 55.4503C225.513 55.1303 225.42 54.9036 225.313 54.7703C225.233 54.6103 225.06 54.517 224.793 54.4903C224.526 54.437 224.073 54.4103 223.433 54.4103H218.913V77.0903C218.913 78.0236 218.953 78.5703 219.033 78.7303C219.113 78.8903 219.366 78.997 219.793 79.0503L221.993 79.2903V80.3303H212.353V79.2903L214.553 79.0503C214.98 78.997 215.233 78.8903 215.313 78.7303C215.393 78.5703 215.433 78.0236 215.433 77.0903V54.4103H210.873C210.26 54.4103 209.806 54.437 209.513 54.4903C209.246 54.517 209.06 54.6103 208.953 54.7703C208.873 54.9036 208.793 55.1303 208.713 55.4503L207.553 59.6503H206.513V53.1303ZM233.865 79.2903V80.3303H226.265V79.2903L228.425 79.0503C228.718 79.0236 228.931 78.9836 229.065 78.9303C229.198 78.8503 229.318 78.6903 229.425 78.4503C229.558 78.1836 229.718 77.7303 229.905 77.0903L237.625 53.1303H240.145L247.945 77.0903C248.131 77.7303 248.278 78.1836 248.385 78.4503C248.518 78.6903 248.651 78.8503 248.785 78.9303C248.918 78.9836 249.118 79.0236 249.385 79.0503L251.585 79.2903V80.3303H241.865V79.2903L244.065 79.0503C244.491 78.997 244.718 78.8903 244.745 78.7303C244.798 78.5436 244.678 77.997 244.385 77.0903L242.745 71.9703H232.985L231.345 77.0903C231.051 77.997 230.918 78.5436 230.945 78.7303C230.998 78.8903 231.238 78.997 231.665 79.0503L233.865 79.2903ZM233.385 70.6903H242.345L237.865 56.7703L233.385 70.6903Z"
            fill="#1E1E1E" />
    </g>
    <path
        d="M165.177 13.1266C165.177 13.1266 167.274 14.7019 168.564 15.7782C169.524 16.5794 170.04 17.0546 170.973 17.8863C172.112 18.9008 173.86 20.516 173.86 20.516C173.86 20.516 175.34 22.0828 176.248 23.1236C178.433 25.6301 179.568 27.2738 181.456 29.8594C183.344 32.445 179.009 26.8246 177.159 25.1657C175.908 24.0445 175.147 23.4792 173.772 22.514C172.484 21.6095 170.364 20.3619 170.364 20.3619L167.433 18.7313C167.433 18.7313 165.488 17.4197 162.525 16.5131C160.621 15.9305 158.051 15.1152 156.098 14.7284C154.363 14.385 153.871 14.3252 152.124 14.0528C150.377 13.7804 147.412 13.4365 145.652 13.2672C144.442 13.1508 141.005 13.3234 139.636 13.5025C138.649 13.6317 138.1 13.7399 137.116 13.892C135.148 14.1962 134.51 14.2149 132.577 14.6929C130.535 15.1977 128.941 15.6538 126.994 16.4489C125.781 16.9441 125.113 17.2517 123.931 17.8154C122.51 18.4927 122.74 18.4333 121.367 19.2038C120.139 19.893 118.887 20.7024 117.76 21.5473C116.656 22.3759 115.672 22.9805 114.653 23.9129C113.431 25.0317 112.713 25.6234 111.524 26.7779C110.035 28.2242 109.73 28.5718 108.373 30.1424C106.815 31.946 105.95 33.4955 104.634 35.483C103.188 37.6675 102.563 38.5008 101.395 40.8456C100.105 43.4344 99.7424 44.2762 99.1989 45.2532C98.6877 46.1721 98.0457 48.7058 98.0457 48.7058C98.0457 48.7058 96.5692 48.1402 95.0707 48.0742C93.6913 48.0134 93.4067 48.1771 92.0516 48.4417C90.8395 48.6783 90.6349 48.8212 89.51 49.3306C87.6191 50.1869 86.302 51.1359 84.8602 52.6291C83.6935 53.8375 83.0793 54.7321 82.7521 55.0387C82.425 55.3453 80.578 58.9468 80.578 58.9468L79.4029 62.8989C79.3148 64.8969 79.1889 65.138 79.2268 66.895C79.2607 68.4689 79.5722 70.4136 80.0057 71.9342C80.4392 73.4547 80.531 73.6984 80.8947 74.4758C81.3772 75.507 81.678 76.0749 82.2832 77.0394C82.9477 78.0984 83.6753 78.9774 84.5506 79.8702C85.5364 80.8756 86.2725 81.2433 87.4597 82.0003C88.53 82.6827 89.2362 82.9412 90.3982 83.3665L90.5108 83.4077C91.8073 83.8826 93.9854 84.0613 93.9854 84.0613C93.9854 84.0613 94.6057 86.9957 95.2638 89.1225C95.9612 91.3764 96.1711 92.0129 97.0418 94.2057C97.7515 95.9931 98.0093 97.0558 98.8417 98.7894C100.296 101.818 100.904 102.884 103.051 105.481C105.791 108.795 108.759 112.239 112.168 114.391C114.237 115.697 114.384 115.955 116.553 117.087C118.965 118.345 121.365 119.465 123.914 120.414C128.043 121.951 129.979 122.103 134.316 122.874C136.631 123.286 138.29 123.55 139.789 123.616C141.368 123.686 143.656 123.563 145.805 123.381C148.972 123.111 153.863 122.234 153.863 122.234C153.863 122.234 156.695 121.598 158.425 120.934C160.301 120.213 163.03 118.634 163.03 118.634C163.03 118.634 166.749 116.773 168.158 115.857C169.566 114.942 169.704 114.632 171.265 113.492C173.85 111.604 174.74 110.654 176 109.5C179.697 106.115 184.5 97.5 183.392 99.5121C183.392 99.5121 181.613 102.834 181.218 103.42C180.823 104.006 181.5 102.943 180.153 104.875C179.594 105.676 177.61 107.993 176.979 108.739C174.477 111.699 174.505 111.817 171.72 114.513C171.72 114.513 168.46 117.753 166.505 119.288C164.416 120.928 163.082 122.162 160.812 123.541C157.893 125.315 156.236 126.304 153.121 127.707C149.848 129.182 148.491 129.526 144.997 130.352C143.245 130.766 140.719 131.331 138.937 131.586C136.012 132.005 134.854 132.212 131.9 132.277C128.971 132.341 127.822 132.25 124.906 131.969C122.76 131.762 120.418 131.596 118.435 131.183C115.467 130.565 111.53 128.877 111.53 128.877C111.53 128.877 106.927 127.081 104.169 125.55C100.948 123.762 97.3737 120.746 97.3737 120.746L91.1002 115.465C91.1002 115.465 84.3186 107.109 82.1156 103.558C80.7734 101.394 80.4372 100.238 79.3607 97.931C78.2873 95.6307 77.9034 95.228 77.0832 92.8258C76.6399 91.5275 75.7694 88.8517 75.3272 87.243C74.6871 84.9142 74.491 84.0608 74.0708 81.6823C73.7244 79.7214 73.4989 78.6237 73.2919 76.6432C73.0879 74.6914 73.0984 73.5865 73.0125 71.626C72.8925 68.888 73.2986 65.1323 73.3206 64.6328C73.502 60.5177 73.8778 58.2056 74.7819 54.187C75.7593 49.8429 76.5783 46.9427 78.2852 42.8302C79.4254 40.0833 80.1707 38.5824 81.5905 35.9691C83.3017 32.8193 86.4383 28.1749 86.4383 28.1749C86.4383 28.1749 88.5687 25.6317 90.133 23.8333C93.0328 20.4998 95.0487 18.4531 98.4994 15.6938C101.215 13.5226 104.692 11.4623 104.692 11.4623C104.692 11.4623 107.264 10.1395 108.276 9.61827C110.994 8.21899 115.424 6.42982 115.424 6.42982C115.424 6.42982 120.293 4.79861 123.526 4.28442C124.699 4.09783 125.364 4.04252 126.545 3.91697C130.448 3.5021 132.666 3.05485 136.579 3.35816C138.536 3.50981 141.336 3.67735 144.05 4.18784C146.764 4.69832 144.311 4.30893 147.025 4.81942C149.739 5.3299 152.418 6.35773 155.407 7.69118C157.163 8.47463 159.609 9.52128 161.291 10.4529C163.05 11.4268 165.177 13.1266 165.177 13.1266Z"
        fill="#45A536" />
    <path
        d="M145.652 13.2672C144.442 13.1508 141.005 13.3234 139.636 13.5025C138.649 13.6317 138.1 13.7399 137.116 13.892C135.148 14.1962 134.51 14.2149 132.577 14.6929C130.535 15.1977 128.941 15.6538 126.994 16.4489C125.781 16.9441 125.113 17.2517 123.931 17.8154C122.51 18.4927 122.74 18.4333 121.367 19.2038C120.139 19.893 118.887 20.7024 117.76 21.5473C116.656 22.3759 115.672 22.9805 114.653 23.9129C113.431 25.0317 112.713 25.6234 111.524 26.7779C110.035 28.2242 109.73 28.5718 108.373 30.1424C106.815 31.946 105.95 33.4955 104.634 35.483C103.188 37.6675 102.563 38.5008 101.395 40.8456C100.105 43.4344 99.7424 44.2762 99.1989 45.2532C98.6877 46.1721 98.0457 48.7058 98.0457 48.7058C98.0457 48.7058 96.5692 48.1402 95.0707 48.0742C93.6913 48.0134 93.4067 48.1771 92.0516 48.4417C90.8395 48.6783 90.6349 48.8212 89.51 49.3306C87.6191 50.1869 86.302 51.1359 84.8602 52.6291C83.6935 53.8375 83.0793 54.7321 82.7521 55.0387C82.425 55.3453 80.578 58.9468 80.578 58.9468L79.4029 62.8989C79.3148 64.8969 79.1889 65.138 79.2268 66.895C79.2607 68.4689 79.5722 70.4136 80.0057 71.9342C80.4392 73.4547 80.531 73.6984 80.8947 74.4758C81.3772 75.507 81.678 76.0749 82.2832 77.0394C82.9477 78.0984 83.6753 78.9774 84.5506 79.8702C85.5364 80.8756 86.2725 81.2433 87.4597 82.0003C88.5642 82.7045 89.2808 82.9573 90.5108 83.4077C91.8073 83.8826 93.9854 84.0613 93.9854 84.0613C93.9854 84.0613 94.6057 86.9957 95.2638 89.1225C95.9612 91.3764 96.1711 92.0129 97.0418 94.2057C97.7515 95.9931 98.0093 97.0558 98.8417 98.7894C100.296 101.818 100.904 102.884 103.051 105.481C105.791 108.795 108.759 112.239 112.168 114.391C114.237 115.697 114.384 115.955 116.553 117.087C118.965 118.345 121.365 119.465 123.914 120.414C128.043 121.951 129.979 122.103 134.316 122.874C136.631 123.286 138.29 123.55 139.789 123.616C141.368 123.686 143.656 123.563 145.805 123.381C148.972 123.111 153.863 122.234 153.863 122.234C153.863 122.234 156.695 121.598 158.425 120.934C160.301 120.213 163.03 118.634 163.03 118.634C163.03 118.634 166.749 116.773 168.158 115.857C169.566 114.942 169.704 114.632 171.265 113.492C173.85 111.604 174.74 110.654 176 109.5C179.697 106.115 184.5 97.5 183.392 99.5121C183.392 99.5121 181.613 102.834 181.218 103.42C180.823 104.006 181.5 102.943 180.153 104.875C179.594 105.676 177.61 107.993 176.979 108.739C174.477 111.699 174.505 111.817 171.72 114.513C171.72 114.513 168.46 117.753 166.505 119.288C164.416 120.928 163.082 122.162 160.812 123.541C157.893 125.315 156.236 126.304 153.121 127.707C149.848 129.182 148.491 129.526 144.997 130.352C143.245 130.766 140.719 131.331 138.937 131.586C136.012 132.005 134.854 132.212 131.9 132.277C128.971 132.341 127.822 132.25 124.906 131.969C122.76 131.762 120.418 131.596 118.435 131.183C115.467 130.565 111.53 128.877 111.53 128.877C111.53 128.877 106.927 127.081 104.169 125.55C100.948 123.762 97.3737 120.746 97.3737 120.746L91.1002 115.465C91.1002 115.465 84.3186 107.109 82.1156 103.558C80.7734 101.394 80.4372 100.238 79.3607 97.931C78.2873 95.6307 77.9034 95.228 77.0832 92.8258C76.6399 91.5275 75.7694 88.8517 75.3272 87.243C74.6871 84.9142 74.491 84.0608 74.0708 81.6823C73.7244 79.7214 73.4989 78.6237 73.2919 76.6432C73.0879 74.6914 73.0984 73.5865 73.0125 71.626C72.8925 68.888 73.2986 65.1323 73.3206 64.6328C73.502 60.5177 73.8778 58.2056 74.7819 54.187C75.7593 49.8429 76.5783 46.9427 78.2852 42.8302C79.4254 40.0833 80.1707 38.5824 81.5905 35.9691C83.3017 32.8193 86.4383 28.1749 86.4383 28.1749C86.4383 28.1749 88.5687 25.6317 90.133 23.8333C93.0328 20.4998 95.0487 18.4531 98.4994 15.6938C101.215 13.5226 104.692 11.4623 104.692 11.4623C104.692 11.4623 107.264 10.1395 108.276 9.61827C110.994 8.21899 115.424 6.42982 115.424 6.42982C115.424 6.42982 120.293 4.79861 123.526 4.28442C124.699 4.09783 125.364 4.04252 126.545 3.91697C130.448 3.5021 132.666 3.05485 136.579 3.35816C138.536 3.50981 141.336 3.67735 144.05 4.18784C146.764 4.69832 144.311 4.30893 147.025 4.81942C149.739 5.3299 152.418 6.35773 155.407 7.69118C157.163 8.47463 159.609 9.52128 161.291 10.4529C163.05 11.4268 165.177 13.1266 165.177 13.1266C165.177 13.1266 167.274 14.7019 168.564 15.7782C169.524 16.5794 170.04 17.0546 170.973 17.8863C172.112 18.9008 173.86 20.516 173.86 20.516C173.86 20.516 175.34 22.0828 176.248 23.1236C178.433 25.6301 179.568 27.2738 181.456 29.8594C183.344 32.445 179.009 26.8246 177.159 25.1657C175.908 24.0445 175.147 23.4792 173.772 22.514C172.484 21.6095 170.364 20.3619 170.364 20.3619L167.433 18.7313C167.433 18.7313 165.488 17.4197 162.525 16.5131C160.621 15.9305 158.051 15.1152 156.098 14.7284C154.363 14.385 153.871 14.3252 152.124 14.0528C150.377 13.7804 147.412 13.4365 145.652 13.2672ZM145.652 13.2672C146.22 13.3219 144.097 13.1175 145.652 13.2672Z"
        stroke="#45A536" />
    <defs>
        <filter id="filter0_d_6_46" x="0.200012" y="48.8303" width="255.385" height="40.02" filterUnits="userSpaceOnUse"
            color-interpolation-filters="sRGB">
            <feFlood flood-opacity="0" result="BackgroundImageFix" />
            <feColorMatrix in="SourceAlpha" type="matrix" values="0 0 0 0 0 0 0 0 0 0 0 0 0 0 0 0 0 0 127 0"
                result="hardAlpha" />
            <feOffset dy="4" />
            <feGaussianBlur stdDeviation="2" />
            <feComposite in2="hardAlpha" operator="out" />
            <feColorMatrix type="matrix" values="0 0 0 0 0 0 0 0 0 0 0 0 0 0 0 0 0 0 0.25 0" />
            <feBlend mode="normal" in2="BackgroundImageFix" result="effect1_dropShadow_6_46" />
            <feBlend mode="normal" in="SourceGraphic" in2="effect1_dropShadow_6_46" result="shape" />
        </filter>
    </defs>


</svg>



